<svg width="107" height="44" viewBox="0 0 107 44" fill="none" xmlns="http://www.w3.org/2000/svg">
<path d="M58.474 36.32C56.9167 36.32 55.4873 36.0427 54.186 35.488C52.8847 34.9333 51.754 34.144 50.794 33.12C49.834 32.0747 49.0873 30.848 48.554 29.44C48.042 28.032 47.786 26.4853 47.786 24.8C47.786 23.2 48.0633 21.7173 48.618 20.352C49.194 18.9653 49.9833 17.7493 50.986 16.704C51.9887 15.6587 53.1513 14.848 54.474 14.272C55.7967 13.696 57.226 13.408 58.762 13.408C59.85 13.408 60.906 13.5787 61.93 13.92C62.9753 14.24 63.914 14.6987 64.746 15.296C65.5993 15.872 66.2927 16.5333 66.826 17.28L64.522 19.68C63.9033 19.0613 63.274 18.5493 62.634 18.144C62.0153 17.7173 61.3753 17.3973 60.714 17.184C60.074 16.9707 59.4233 16.864 58.762 16.864C57.7167 16.864 56.7353 17.0667 55.818 17.472C54.922 17.856 54.1327 18.4 53.45 19.104C52.7887 19.808 52.266 20.6507 51.882 21.632C51.498 22.592 51.306 23.648 51.306 24.8C51.306 26.016 51.4873 27.1253 51.85 28.128C52.234 29.1093 52.7673 29.952 53.45 30.656C54.1327 31.36 54.9433 31.904 55.882 32.288C56.842 32.6507 57.898 32.832 59.05 32.832C59.754 32.832 60.4473 32.736 61.13 32.544C61.8127 32.352 62.4527 32.0747 63.05 31.712C63.6473 31.3493 64.1913 30.9227 64.682 30.432L66.41 33.248C65.9193 33.824 65.2473 34.3467 64.394 34.816C63.562 35.2853 62.6233 35.6587 61.578 35.936C60.554 36.192 59.5193 36.32 58.474 36.32ZM70.8168 36V19.2H74.1128V36H70.8168ZM72.4168 15.488C71.7128 15.488 71.1688 15.3067 70.7848 14.944C70.4008 14.5813 70.2088 14.0693 70.2088 13.408C70.2088 12.7893 70.4008 12.288 70.7848 11.904C71.1901 11.52 71.7341 11.328 72.4168 11.328C73.1208 11.328 73.6648 11.5093 74.0488 11.872C74.4328 12.2347 74.6248 12.7467 74.6248 13.408C74.6248 14.0267 74.4221 14.528 74.0168 14.912C73.6328 15.296 73.0994 15.488 72.4168 15.488ZM81.259 36V14.912H84.555V36H81.259ZM77.771 22.4V19.2H88.459V22.4H77.771ZM99.144 36.32C97.416 36.32 95.88 35.9573 94.536 35.232C93.2133 34.4853 92.168 33.472 91.4 32.192C90.6533 30.912 90.28 29.44 90.28 27.776C90.28 26.4533 90.4933 25.248 90.92 24.16C91.3467 23.072 91.9333 22.1333 92.68 21.344C93.448 20.5333 94.3547 19.9147 95.4 19.488C96.4667 19.04 97.6187 18.816 98.856 18.816C99.944 18.816 100.957 19.0293 101.896 19.456C102.835 19.8613 103.645 20.4267 104.328 21.152C105.032 21.8773 105.565 22.7413 105.928 23.744C106.312 24.7253 106.493 25.8027 106.472 26.976L106.44 28.384H92.712L91.976 25.76H103.592L103.112 26.304V25.536C103.048 24.832 102.813 24.2027 102.408 23.648C102.003 23.0933 101.491 22.656 100.872 22.336C100.253 22.016 99.5813 21.856 98.856 21.856C97.704 21.856 96.7333 22.08 95.944 22.528C95.1547 22.9547 94.5573 23.5947 94.152 24.448C93.7467 25.28 93.544 26.3147 93.544 27.552C93.544 28.7253 93.7893 29.7493 94.28 30.624C94.7707 31.4773 95.464 32.1387 96.36 32.608C97.256 33.0773 98.2907 33.312 99.464 33.312C100.296 33.312 101.064 33.1733 101.768 32.896C102.493 32.6187 103.272 32.1173 104.104 31.392L105.768 33.728C105.256 34.24 104.627 34.688 103.88 35.072C103.155 35.456 102.376 35.7653 101.544 36C100.733 36.2133 99.9333 36.32 99.144 36.32Z" fill="#FD9F05"/>
<ellipse cx="2.5" cy="1" rx="1.5" ry="1" fill="white"/>
<ellipse cx="1.5" cy="1" rx="1.5" ry="1" transform="matrix(1 0 0 -1 1 42)" fill="white"/>
<ellipse cx="2.5" cy="1" rx="1.5" ry="1" fill="white"/>
<line x1="11" y1="14.5" x2="19" y2="14.5" stroke="#FD9F05" stroke-width="3"/>
<line y1="-1.5" x2="18.6776" y2="-1.5" transform="matrix(0.999964 0.00847396 -0.0103064 0.999947 0.872803 3.16547)" stroke="#FD9F05" stroke-width="3"/>
<line y1="-1.5" x2="22.1512" y2="-1.5" transform="matrix(0.488049 -0.872816 0.955841 0.293883 35.189 22.6339)" stroke="#FD9F05" stroke-width="3"/>
<line x1="29" y1="1.5" x2="46" y2="1.5" stroke="#FD9F05" stroke-width="3"/>
<ellipse cx="9.5" cy="15" rx="2.5" ry="2" fill="#FD9F05"/>
<circle cx="9.5" cy="14.5" r="1.5" fill="white"/>
<line x1="11" y1="28.5" x2="19" y2="28.5" stroke="#FD9F05" stroke-width="3"/>
<ellipse cx="9.5" cy="29" rx="2.5" ry="2" fill="#FD9F05"/>
<ellipse cx="9.5" cy="29" rx="1.5" ry="1" fill="white"/>
<circle cx="2" cy="2" r="2" fill="#FD9F05"/>
<ellipse cx="2.5" cy="2" rx="1.5" ry="1" fill="white"/>
<line y1="-1.5" x2="12.1263" y2="-1.5" transform="matrix(0.427907 0.903823 -0.929488 0.368853 17.6792 2.20001)" stroke="#FD9F05" stroke-width="3"/>
<line y1="-1.5" x2="12.5411" y2="-1.5" transform="matrix(-0.486059 0.873926 0.947406 0.320035 31.3271 2.20001)" stroke="#FD9F05" stroke-width="3"/>
<line y1="-1.5" x2="18.6776" y2="-1.5" transform="matrix(0.999964 -0.00847396 -0.0103064 -0.999947 0.872803 40.8345)" stroke="#FD9F05" stroke-width="3"/>
<line y1="-1.5" x2="22.1512" y2="-1.5" transform="matrix(0.488049 0.872816 0.955841 -0.293883 35.189 21.3661)" stroke="#FD9F05" stroke-width="3"/>
<line y1="-1.5" x2="17" y2="-1.5" transform="matrix(1 0 0 -1 29 41)" stroke="#FD9F05" stroke-width="3"/>
<circle cx="2" cy="2" r="2" transform="matrix(1 0 0 -1 0 44)" fill="#FD9F05"/>
<ellipse cx="1.5" cy="1" rx="1.5" ry="1" transform="matrix(1 0 0 -1 1 43)" fill="white"/>
<line y1="-1.5" x2="12.1263" y2="-1.5" transform="matrix(0.427907 -0.903823 -0.929488 -0.368853 17.6792 41.8)" stroke="#FD9F05" stroke-width="3"/>
<line y1="-1.5" x2="12.5411" y2="-1.5" transform="matrix(-0.486059 -0.873926 0.947406 -0.320035 31.3271 41.8)" stroke="#FD9F05" stroke-width="3"/>
<line y1="-1.5" x2="18.6776" y2="-1.5" transform="matrix(0.999964 0.00847396 -0.0103064 0.999947 0.872803 3.16547)" stroke="#FD9F05" stroke-width="3"/>
<circle cx="2" cy="2" r="2" fill="#FD9F05"/>
<ellipse cx="2.5" cy="2" rx="1.5" ry="1" fill="white"/>
<line x1="23" y1="31.5" x2="25" y2="31.5" stroke="#FD9F05" stroke-width="3"/>
<line x1="23" y1="11.5" x2="25" y2="11.5" stroke="#FD9F05" stroke-width="3"/>
<ellipse cx="2.5" cy="2" rx="1.5" ry="1" fill="white"/>
<ellipse cx="1.5" cy="1" rx="1.5" ry="1" transform="matrix(1 0 0 -1 1 43)" fill="white"/>
<ellipse cx="2.5" cy="2" rx="1.5" ry="1" fill="white"/>
</svg>
