<svg width="441" height="460" viewBox="0 0 441 460" fill="none" xmlns="http://www.w3.org/2000/svg">
<circle cx="21.5" cy="11.5" r="11.5" fill="white"/>
<circle cx="11.5" cy="11.5" r="11.5" transform="matrix(1 0 0 -1 10 440)" fill="white"/>
<circle cx="21.5" cy="11.5" r="11.5" fill="white"/>
<line x1="103" y1="154" x2="181" y2="154" stroke="#FD9F05" stroke-width="18"/>
<line y1="-9" x2="178.773" y2="-9" transform="matrix(0.999957 0.00925575 -0.00943589 0.999955 8.35352 33.0936)" stroke="#FD9F05" stroke-width="18"/>
<line y1="-9" x2="227.074" y2="-9" transform="matrix(0.455691 -0.890138 0.947971 0.318356 336.81 236.627)" stroke="#FD9F05" stroke-width="18"/>
<line x1="283" y1="27" x2="440" y2="27" stroke="#FD9F05" stroke-width="18"/>
<circle cx="90.5" cy="150.5" r="21.5" fill="#FD9F05"/>
<circle cx="90.5" cy="151.5" r="11.5" fill="white"/>
<line x1="103" y1="308" x2="181" y2="308" stroke="#FD9F05" stroke-width="18"/>
<ellipse cx="90.5" cy="306" rx="21.5" ry="21" fill="#FD9F05"/>
<circle cx="90.5" cy="305.5" r="11.5" fill="white"/>
<circle cx="21.5" cy="21.5" r="21.5" fill="#FD9F05"/>
<circle cx="21.5" cy="21.5" r="11.5" fill="white"/>
<line x1="177.472" y1="19.4207" x2="227.137" y2="134.002" stroke="#FD9F05" stroke-width="18"/>
<line y1="-9" x2="128.581" y2="-9" transform="matrix(-0.453758 0.891125 0.938176 0.346158 299.845 23)" stroke="#FD9F05" stroke-width="18"/>
<line y1="-9" x2="178.773" y2="-9" transform="matrix(0.999957 -0.00925575 -0.00943589 -0.999955 8.35352 426.906)" stroke="#FD9F05" stroke-width="18"/>
<line y1="-9" x2="227.074" y2="-9" transform="matrix(0.455691 0.890138 0.947971 -0.318356 336.81 223.373)" stroke="#FD9F05" stroke-width="18"/>
<line y1="-9" x2="157" y2="-9" transform="matrix(1 0 0 -1 283 424)" stroke="#FD9F05" stroke-width="18"/>
<circle cx="21.5" cy="21.5" r="21.5" transform="matrix(1 0 0 -1 0 460)" fill="#FD9F05"/>
<circle cx="11.5" cy="11.5" r="11.5" transform="matrix(1 0 0 -1 10 450)" fill="white"/>
<line y1="-9" x2="124.882" y2="-9" transform="matrix(0.397697 -0.917517 -0.917517 -0.397697 169.214 437)" stroke="#FD9F05" stroke-width="18"/>
<line y1="-9" x2="128.581" y2="-9" transform="matrix(-0.453758 -0.891125 0.938176 -0.346158 299.845 437)" stroke="#FD9F05" stroke-width="18"/>
<line y1="-9" x2="178.773" y2="-9" transform="matrix(0.999957 0.00925575 -0.00943589 0.999955 8.35352 33.0936)" stroke="#FD9F05" stroke-width="18"/>
<circle cx="21.5" cy="21.5" r="21.5" fill="#FD9F05"/>
<circle cx="21.5" cy="21.5" r="11.5" fill="white"/>
<line x1="218" y1="333" x2="241" y2="333" stroke="#FD9F05" stroke-width="18"/>
<line x1="218" y1="127" x2="241" y2="127" stroke="#FD9F05" stroke-width="18"/>
<circle cx="21.5" cy="21.5" r="11.5" fill="white"/>
<circle cx="11.5" cy="11.5" r="11.5" transform="matrix(1 0 0 -1 10 450)" fill="white"/>
<circle cx="21.5" cy="21.5" r="11.5" fill="white"/>
<circle cx="21.5" cy="11.5" r="11.5" fill="white"/>
<circle cx="11.5" cy="11.5" r="11.5" transform="matrix(1 0 0 -1 10 440)" fill="white"/>
<circle cx="21.5" cy="11.5" r="11.5" fill="white"/>
<line x1="103" y1="154" x2="181" y2="154" stroke="#FD9F05" stroke-width="18"/>
<line y1="-9" x2="178.773" y2="-9" transform="matrix(0.999957 0.00925575 -0.00943589 0.999955 8.35352 33.0936)" stroke="#FD9F05" stroke-width="18"/>
<line y1="-9" x2="227.074" y2="-9" transform="matrix(0.455691 -0.890138 0.947971 0.318356 336.81 236.627)" stroke="#FD9F05" stroke-width="18"/>
<line x1="283" y1="27" x2="440" y2="27" stroke="#FD9F05" stroke-width="18"/>
<circle cx="90.5" cy="150.5" r="21.5" fill="#FD9F05"/>
<circle cx="90.5" cy="151.5" r="11.5" fill="white"/>
<line x1="103" y1="308" x2="181" y2="308" stroke="#FD9F05" stroke-width="18"/>
<ellipse cx="90.5" cy="306" rx="21.5" ry="21" fill="#FD9F05"/>
<circle cx="90.5" cy="305.5" r="11.5" fill="white"/>
<circle cx="21.5" cy="21.5" r="21.5" fill="#FD9F05"/>
<circle cx="21.5" cy="21.5" r="11.5" fill="white"/>
<line y1="-9" x2="128.581" y2="-9" transform="matrix(-0.453758 0.891125 0.938176 0.346158 299.845 23)" stroke="#FD9F05" stroke-width="18"/>
<line y1="-9" x2="178.773" y2="-9" transform="matrix(0.999957 -0.00925575 -0.00943589 -0.999955 8.35352 426.906)" stroke="#FD9F05" stroke-width="18"/>
<line y1="-9" x2="157" y2="-9" transform="matrix(1 0 0 -1 283 424)" stroke="#FD9F05" stroke-width="18"/>
<circle cx="21.5" cy="21.5" r="21.5" transform="matrix(1 0 0 -1 0 460)" fill="#FD9F05"/>
<circle cx="11.5" cy="11.5" r="11.5" transform="matrix(1 0 0 -1 10 450)" fill="white"/>
<line y1="-9" x2="124.882" y2="-9" transform="matrix(0.397697 -0.917517 -0.917517 -0.397697 169.214 437)" stroke="#FD9F05" stroke-width="18"/>
<line y1="-9" x2="128.581" y2="-9" transform="matrix(-0.453758 -0.891125 0.938176 -0.346158 299.845 437)" stroke="#FD9F05" stroke-width="18"/>
<line y1="-9" x2="178.773" y2="-9" transform="matrix(0.999957 0.00925575 -0.00943589 0.999955 8.35352 33.0936)" stroke="#FD9F05" stroke-width="18"/>
<circle cx="21.5" cy="21.5" r="21.5" fill="#FD9F05"/>
<circle cx="21.5" cy="21.5" r="11.5" fill="white"/>
<line x1="218" y1="333" x2="241" y2="333" stroke="#FD9F05" stroke-width="18"/>
<line x1="218" y1="127" x2="241" y2="127" stroke="#FD9F05" stroke-width="18"/>
<circle cx="21.5" cy="21.5" r="11.5" fill="white"/>
<circle cx="11.5" cy="11.5" r="11.5" transform="matrix(1 0 0 -1 10 450)" fill="white"/>
<circle cx="21.5" cy="21.5" r="11.5" fill="white"/>
</svg>
